<svg width="20" height="20" viewBox="0 0 20 20" fill="none" xmlns="http://www.w3.org/2000/svg">
<rect width="20" height="20" fill="white"/>
<path d="M10 1C12.757 1 15 3.10469 15 5.69178C15 6.41464 14.8199 7.13362 14.4782 7.77868H14.4823L14.3918 7.936C13.6238 9.25898 13.1974 10.7656 13.1587 12.2929C13.1469 12.7585 12.7728 13.1233 12.3071 13.1233H8.41075C7.90868 13.1233 7.48702 12.7634 7.40816 12.2676C7.21626 11.0613 6.83246 9.89889 6.26752 8.81264C5.45009 7.95239 5 6.84439 5 5.69178C5 3.10469 7.24302 1 10 1ZM13 8.81264L13.5 7.97261C13.8663 7.32233 14.1622 6.42956 14.1622 5.69178C14.1622 3.18028 12.6815 1.97261 10 1.97261C7.31853 1.97261 6 3.18028 6 5.69178C6 6.81222 6.75 7.55354 7.25 8.55354V8.55354C7.41362 8.82781 7.5 9.14122 7.5 9.46059V9.47261C8 10.9726 8 11.9726 8.5 12.9726C8.56823 13.4015 7.97644 12.9863 8.41075 12.9863H12C12.3909 12.9863 12.4901 12.8634 12.5 12.4726C12.5392 10.9242 12.2222 10.1544 13 8.81264Z" fill="#1D4FD7"/>
<path d="M12.8462 12.7808H7.702C7.53844 12.7808 7.41018 12.9213 7.42499 13.0842L7.47316 13.614C7.51347 14.0574 7.65337 14.486 7.88244 14.8677C7.92074 14.9316 7.99307 14.9665 8.06698 14.9576C9.59131 14.7739 11.0828 14.7679 12.5385 14.955C12.6182 14.9652 12.6954 14.9245 12.7314 14.8527L12.7643 14.7868C12.9292 14.457 13.031 14.0992 13.0644 13.732L13.1233 13.0842C13.1381 12.9213 13.0098 12.7808 12.8462 12.7808Z" fill="#1D4FD7"/>
<path d="M8.21875 14.5959H12.4311V17.3375C12.4311 17.8279 12.033 18.226 11.5426 18.226H9.10725C8.61687 18.226 8.21875 17.8279 8.21875 17.3375V14.5959Z" fill="#1D4FD7"/>
<path d="M10.8672 18.9452H9.95431C9.8539 18.9452 9.75967 18.8967 9.70131 18.815L9.10938 17.9863H11.7121L11.1202 18.815C11.0618 18.8967 10.9676 18.9452 10.8672 18.9452Z" fill="#1D4FD7"/>
<path d="M11.5585 3.41962C10.8883 3.5584 10.218 3.69717 9.54784 3.83595C9.24647 3.89835 8.90894 3.93074 8.63512 4.08052C8.36965 4.22573 8.18372 4.53041 8.27869 4.83542C8.36938 5.12668 8.63707 5.3094 8.92419 5.37435C9.24276 5.44642 9.58402 5.44591 9.90874 5.47098C10.2474 5.49712 10.5861 5.52326 10.9248 5.54941C11.086 5.56185 11.248 5.57044 11.4089 5.587C11.4603 5.5923 11.5164 5.59861 11.5586 5.63124C11.558 5.63075 11.5729 5.64009 11.5646 5.64152C11.563 5.6418 11.5629 5.63095 11.5631 5.63023C11.5696 5.6099 11.5669 5.62913 11.5617 5.62918C11.5598 5.6292 11.5113 5.66124 11.4843 5.6663C11.4112 5.67996 11.3307 5.67002 11.2567 5.66876C11.0959 5.66603 10.9351 5.66906 10.7746 5.67781C10.4514 5.69543 10.1288 5.73562 9.81096 5.7965C9.49836 5.85639 9.18724 5.93612 8.88702 6.04233C8.59593 6.14531 8.29105 6.34087 8.28314 6.68591C8.2757 7.00997 8.55683 7.2377 8.84314 7.31911C8.9904 7.36098 9.14558 7.37616 9.29662 7.39863C9.46514 7.42369 9.63365 7.44876 9.80217 7.47383C10.1336 7.52313 10.465 7.57243 10.7964 7.62174C10.9649 7.6468 11.1334 7.67187 11.302 7.69694C11.3805 7.70863 11.4596 7.71871 11.5379 7.73204C11.5668 7.73695 11.594 7.74603 11.6225 7.75188C11.6034 7.74795 11.6271 7.74798 11.6232 7.75244C11.6356 7.76008 11.6357 7.75893 11.6232 7.74897L11.6148 7.73654C11.5954 7.68225 11.5961 7.6751 11.6314 7.61091C11.6381 7.59865 11.6518 7.6113 11.6344 7.60937C11.6158 7.60731 11.6455 7.60704 11.6257 7.61523C11.6158 7.61933 11.605 7.62212 11.5947 7.62497C11.5167 7.64656 11.4349 7.65784 11.3555 7.67343C11.1904 7.70585 11.0253 7.73827 10.8602 7.77069C10.5355 7.83445 10.2107 7.89819 9.88604 7.96196C9.31405 8.07431 8.70658 8.22626 8.36379 8.74237C8.28922 8.85464 8.2351 8.98402 8.20807 9.11599C8.18582 9.2246 8.23956 9.33797 8.35158 9.36875C8.45319 9.39667 8.58198 9.33447 8.60435 9.22524C8.71293 8.69509 9.29305 8.5047 9.7701 8.40357C10.0864 8.33654 10.4045 8.27789 10.7218 8.2156C11.0415 8.15282 11.3662 8.10172 11.6832 8.02646C11.8165 7.99483 11.961 7.9129 11.9983 7.77082C12.0391 7.61526 11.9623 7.46509 11.8213 7.39262C11.686 7.32311 11.5253 7.31763 11.3775 7.29565C11.2146 7.27142 11.0517 7.24718 10.8888 7.22295C10.5574 7.17365 10.226 7.12435 9.89457 7.07505C9.73167 7.05081 9.56877 7.02658 9.40587 7.00235C9.25483 6.97988 9.09967 6.96471 8.95239 6.92283C8.85275 6.8945 8.7508 6.84589 8.70679 6.75102C8.6926 6.72043 8.68895 6.69817 8.69864 6.66376C8.71194 6.61654 8.74892 6.57256 8.79008 6.54002C8.88496 6.46499 9.01339 6.43152 9.12617 6.39534C9.27416 6.34786 9.42379 6.3055 9.57471 6.26835C9.87432 6.19459 10.1789 6.14061 10.486 6.11069C10.646 6.0951 10.8066 6.08519 10.9673 6.08102C11.1194 6.07707 11.2717 6.0865 11.4236 6.08179C11.5855 6.07678 11.7522 6.03349 11.8633 5.90799C11.9777 5.77884 12.0055 5.60248 11.9259 5.44765C11.7684 5.14126 11.3512 5.17136 11.0603 5.14891C10.7272 5.1232 10.3942 5.09749 10.0612 5.07178C9.74973 5.04774 9.42954 5.04268 9.12082 4.99475C9.00649 4.977 8.87472 4.94433 8.7885 4.8762C8.70945 4.81374 8.65814 4.73186 8.66442 4.6498C8.67027 4.57347 8.74821 4.48916 8.82981 4.44231C8.94429 4.37657 9.07936 4.35204 9.20722 4.32539C9.86523 4.18821 10.5236 4.0528 11.1818 3.91651C11.3438 3.88297 11.5058 3.84944 11.6677 3.8159C11.7764 3.79339 11.8393 3.66517 11.8112 3.56313C11.7802 3.45026 11.6675 3.39704 11.5585 3.41962Z" fill="#14B7A4"/>
</svg>
