<svg width="123" height="24" viewBox="0 0 123 24" fill="none" xmlns="http://www.w3.org/2000/svg">
<g clip-path="url(#clip0_152_1218)">
<path d="M3.29765 3.50254L1.48508 3.73298C0.906575 3.80653 0.263901 3.80429 0.0790386 4.70166C0.00457191 5.06315 0.0358633 5.48067 0.0325576 5.85125C0.0287867 6.27387 0.0255036 6.6965 0.0227059 7.11914C0.017438 7.91469 0.0139088 8.71027 0.0121182 9.50585C0.00486094 12.7315 -0.0325926 15.9783 0.0758526 19.2014C0.0901977 19.6278 0.168966 20.0626 0.457198 20.3091C0.731925 20.544 1.05101 20.5007 1.36234 20.4898C2.05992 20.4653 2.7575 20.4408 3.45508 20.4164C4.18021 20.391 4.18307 18.8895 3.45508 18.915C2.94107 18.933 2.42707 18.951 1.91306 18.969C1.67441 18.9774 1.43577 18.9858 1.19712 18.9941C1.14013 18.9961 1.03971 18.9654 0.993341 19.0001C0.835086 19.1186 1.2909 19.2178 1.2078 19.3025C1.24634 19.2632 1.19915 18.8232 1.19814 18.754C1.17821 17.3868 1.16335 16.0196 1.15362 14.6522C1.13381 11.8678 1.13518 9.08312 1.15775 6.29874C1.15916 6.12471 1.16065 5.95069 1.16223 5.77667C1.16382 5.60067 1.19834 5.35201 1.16796 5.18004L1.16928 5.12388C1.1828 4.96256 1.12394 5.02166 0.992711 5.30118C0.977097 5.29368 1.10586 5.28249 1.1006 5.28328C1.24675 5.26141 1.39361 5.24603 1.54001 5.22742L3.29766 5.00396C3.60114 4.96538 3.86216 4.68655 3.86216 4.25325C3.86215 3.87716 3.60296 3.46372 3.29765 3.50254Z" fill="#060B1A"/>
</g>
<path d="M13 3.02739C15.757 3.02739 18 5.13208 18 7.71917C18 8.44203 17.8199 9.16101 17.4782 9.80607H17.4823L17.3918 9.96339C16.6238 11.2864 16.1974 12.793 16.1587 14.3203C16.1469 14.7859 15.7728 15.1507 15.3071 15.1507H11.4107C10.9087 15.1507 10.487 14.7908 10.4082 14.295C10.2163 13.0887 9.83246 11.9263 9.26752 10.84C8.45009 9.97978 8 8.87178 8 7.71917C8 5.13208 10.243 3.02739 13 3.02739ZM16 10.84L16.5 10C16.8663 9.34972 17.1622 8.45695 17.1622 7.71917C17.1622 5.20767 15.6815 4 13 4C10.3185 4 9 5.20767 9 7.71917C9 8.83961 9.75 9.58093 10.25 10.5809C10.4136 10.8552 10.5 11.1686 10.5 11.488V11.5C11 13 11 14 11.5 15C11.5682 15.4289 10.9764 15.0137 11.4107 15.0137H15C15.3909 15.0137 15.4901 14.8908 15.5 14.5C15.5392 12.9516 15.2222 12.1818 16 10.84Z" fill="#1D4FD7"/>
<path d="M15.8462 14.8082H10.702C10.5384 14.8082 10.4102 14.9487 10.425 15.1116L10.4732 15.6414C10.5135 16.0848 10.6534 16.5134 10.8824 16.8951C10.9207 16.959 10.9931 16.9939 11.067 16.985C12.5913 16.8013 14.0828 16.7953 15.5385 16.9824C15.6182 16.9926 15.6954 16.9519 15.7314 16.8801L15.7643 16.8141C15.9292 16.4843 16.031 16.1266 16.0644 15.7594L16.1233 15.1116C16.1381 14.9487 16.0098 14.8082 15.8462 14.8082Z" fill="#1D4FD7"/>
<path d="M11.2188 16.6233H15.4311V19.3649C15.4311 19.8553 15.033 20.2534 14.5426 20.2534H12.1072C11.6169 20.2534 11.2188 19.8553 11.2188 19.3649V16.6233Z" fill="#1D4FD7"/>
<path d="M13.8672 20.9726H12.9543C12.8539 20.9726 12.7597 20.9241 12.7013 20.8424L12.1094 20.0137H14.7121L14.1202 20.8424C14.0618 20.9241 13.9676 20.9726 13.8672 20.9726Z" fill="#1D4FD7"/>
<path d="M14.5585 5.44701C13.8883 5.58579 13.218 5.72456 12.5478 5.86334C12.2465 5.92574 11.9089 5.95813 11.6351 6.10791C11.3696 6.25312 11.1837 6.5578 11.2787 6.86281C11.3694 7.15407 11.6371 7.33679 11.9242 7.40174C12.2428 7.47381 12.584 7.4733 12.9087 7.49837C13.2474 7.52451 13.5861 7.55065 13.9248 7.5768C14.086 7.58924 14.248 7.59783 14.4089 7.61439C14.4603 7.61969 14.5164 7.626 14.5586 7.65863C14.558 7.65814 14.5729 7.66748 14.5646 7.66891C14.563 7.66919 14.5629 7.65834 14.5631 7.65762C14.5696 7.63729 14.5669 7.65652 14.5617 7.65657C14.5598 7.65659 14.5113 7.68863 14.4843 7.69369C14.4112 7.70734 14.3307 7.69741 14.2567 7.69615C14.0959 7.69342 13.9351 7.69645 13.7746 7.7052C13.4514 7.72282 13.1288 7.76301 12.811 7.82389C12.4984 7.88378 12.1872 7.96351 11.887 8.06972C11.5959 8.1727 11.2911 8.36826 11.2831 8.7133C11.2757 9.03736 11.5568 9.26509 11.8431 9.3465C11.9904 9.38837 12.1456 9.40355 12.2966 9.42602C12.4651 9.45108 12.6337 9.47615 12.8022 9.50122C13.1336 9.55052 13.465 9.59982 13.7964 9.64913C13.9649 9.67419 14.1334 9.69926 14.302 9.72433C14.3805 9.73602 14.4596 9.7461 14.5379 9.75943C14.5668 9.76434 14.594 9.77342 14.6225 9.77927C14.6034 9.77534 14.6271 9.77537 14.6232 9.77983C14.6356 9.78747 14.6357 9.78632 14.6232 9.77636L14.6148 9.76393C14.5954 9.70964 14.5961 9.70249 14.6314 9.6383C14.6381 9.62604 14.6518 9.63869 14.6344 9.63676C14.6158 9.6347 14.6455 9.63443 14.6257 9.64262C14.6158 9.64672 14.605 9.64951 14.5947 9.65236C14.5167 9.67395 14.4349 9.68523 14.3555 9.70082C14.1904 9.73324 14.0253 9.76566 13.8602 9.79808C13.5355 9.86184 13.2107 9.92558 12.886 9.98935C12.314 10.1017 11.7066 10.2536 11.3638 10.7698C11.2892 10.882 11.2351 11.0114 11.2081 11.1434C11.1858 11.252 11.2396 11.3654 11.3516 11.3961C11.4532 11.4241 11.582 11.3619 11.6043 11.2526C11.7129 10.7225 12.293 10.5321 12.7701 10.431C13.0864 10.3639 13.4045 10.3053 13.7218 10.243C14.0415 10.1802 14.3662 10.1291 14.6832 10.0539C14.8165 10.0222 14.961 9.94029 14.9983 9.79821C15.0391 9.64265 14.9623 9.49248 14.8213 9.42001C14.686 9.3505 14.5253 9.34502 14.3775 9.32304C14.2146 9.2988 14.0517 9.27457 13.8888 9.25034C13.5574 9.20104 13.226 9.15174 12.8946 9.10244C12.7317 9.0782 12.5688 9.05397 12.4059 9.02974C12.2548 9.00727 12.0997 8.9921 11.9524 8.95022C11.8528 8.92189 11.7508 8.87328 11.7068 8.77841C11.6926 8.74782 11.6889 8.72556 11.6986 8.69115C11.7119 8.64393 11.7489 8.59995 11.7901 8.5674C11.885 8.49238 12.0134 8.45891 12.1262 8.42273C12.2742 8.37525 12.4238 8.33289 12.5747 8.29573C12.8743 8.22198 13.1789 8.168 13.486 8.13808C13.646 8.12249 13.8066 8.11258 13.9673 8.10841C14.1194 8.10446 14.2717 8.11389 14.4236 8.10918C14.5855 8.10417 14.7522 8.06088 14.8633 7.93538C14.9777 7.80623 15.0055 7.62987 14.9259 7.47504C14.7684 7.16865 14.3512 7.19875 14.0603 7.1763C13.7272 7.15059 13.3942 7.12488 13.0612 7.09917C12.7497 7.07513 12.4295 7.07007 12.1208 7.02214C12.0065 7.00439 11.8747 6.97172 11.7885 6.90359C11.7095 6.84113 11.6581 6.75924 11.6644 6.67719C11.6703 6.60086 11.7482 6.51655 11.8298 6.4697C11.9443 6.40396 12.0794 6.37943 12.2072 6.35278C12.8652 6.2156 13.5236 6.08019 14.1818 5.9439C14.3438 5.91036 14.5058 5.87682 14.6677 5.84329C14.7764 5.82078 14.8393 5.69256 14.8112 5.59052C14.7802 5.47765 14.6675 5.42443 14.5585 5.44701Z" fill="#14B7A4"/>
<path d="M24.2523 18C24.1203 18 24.0183 17.964 23.9463 17.892C23.8743 17.808 23.8383 17.706 23.8383 17.586V5.832C23.8383 5.7 23.8743 5.598 23.9463 5.526C24.0183 5.442 24.1203 5.4 24.2523 5.4H31.5963C31.7283 5.4 31.8303 5.442 31.9023 5.526C31.9743 5.598 32.0103 5.7 32.0103 5.832V6.552C32.0103 6.684 31.9743 6.786 31.9023 6.858C31.8303 6.93 31.7283 6.966 31.5963 6.966H25.5843V11.16H31.2363C31.3683 11.16 31.4703 11.202 31.5423 11.286C31.6143 11.358 31.6503 11.46 31.6503 11.592V12.312C31.6503 12.432 31.6143 12.534 31.5423 12.618C31.4703 12.69 31.3683 12.726 31.2363 12.726H25.5843V17.586C25.5843 17.706 25.5423 17.808 25.4583 17.892C25.3863 17.964 25.2843 18 25.1523 18H24.2523ZM37.3967 18.18C36.4847 18.18 35.7227 18.006 35.1107 17.658C34.4987 17.31 34.0307 16.83 33.7067 16.218C33.3827 15.594 33.2027 14.886 33.1667 14.094C33.1547 13.89 33.1487 13.632 33.1487 13.32C33.1487 12.996 33.1547 12.738 33.1667 12.546C33.2027 11.742 33.3827 11.034 33.7067 10.422C34.0427 9.81 34.5167 9.33 35.1287 8.982C35.7407 8.634 36.4967 8.46 37.3967 8.46C38.2967 8.46 39.0527 8.634 39.6647 8.982C40.2767 9.33 40.7447 9.81 41.0687 10.422C41.4047 11.034 41.5907 11.742 41.6267 12.546C41.6387 12.738 41.6447 12.996 41.6447 13.32C41.6447 13.632 41.6387 13.89 41.6267 14.094C41.5907 14.886 41.4107 15.594 41.0867 16.218C40.7627 16.83 40.2947 17.31 39.6827 17.658C39.0707 18.006 38.3087 18.18 37.3967 18.18ZM37.3967 16.794C38.1407 16.794 38.7347 16.56 39.1787 16.092C39.6227 15.612 39.8627 14.916 39.8987 14.004C39.9107 13.824 39.9167 13.596 39.9167 13.32C39.9167 13.044 39.9107 12.816 39.8987 12.636C39.8627 11.724 39.6227 11.034 39.1787 10.566C38.7347 10.086 38.1407 9.846 37.3967 9.846C36.6527 9.846 36.0527 10.086 35.5967 10.566C35.1527 11.034 34.9187 11.724 34.8947 12.636C34.8827 12.816 34.8767 13.044 34.8767 13.32C34.8767 13.596 34.8827 13.824 34.8947 14.004C34.9187 14.916 35.1527 15.612 35.5967 16.092C36.0527 16.56 36.6527 16.794 37.3967 16.794ZM47.0306 18.18C46.2626 18.18 45.6086 18.012 45.0686 17.676C44.5406 17.328 44.1386 16.848 43.8626 16.236C43.5866 15.624 43.4486 14.922 43.4486 14.13V9.054C43.4486 8.934 43.4846 8.838 43.5566 8.766C43.6406 8.682 43.7426 8.64 43.8626 8.64H44.7626C44.8826 8.64 44.9786 8.682 45.0506 8.766C45.1346 8.838 45.1766 8.934 45.1766 9.054V14.04C45.1766 15.828 45.9566 16.722 47.5166 16.722C48.2606 16.722 48.8546 16.488 49.2986 16.02C49.7546 15.54 49.9826 14.88 49.9826 14.04V9.054C49.9826 8.934 50.0186 8.838 50.0906 8.766C50.1746 8.682 50.2766 8.64 50.3966 8.64H51.2786C51.4106 8.64 51.5126 8.682 51.5846 8.766C51.6566 8.838 51.6926 8.934 51.6926 9.054V17.586C51.6926 17.706 51.6566 17.808 51.5846 17.892C51.5126 17.964 51.4106 18 51.2786 18H50.4506C50.3306 18 50.2286 17.964 50.1446 17.892C50.0726 17.808 50.0366 17.706 50.0366 17.586V16.794C49.7126 17.214 49.3166 17.55 48.8486 17.802C48.3926 18.054 47.7866 18.18 47.0306 18.18ZM54.4208 18C54.3008 18 54.1988 17.964 54.1148 17.892C54.0428 17.808 54.0068 17.706 54.0068 17.586V9.054C54.0068 8.934 54.0428 8.838 54.1148 8.766C54.1988 8.682 54.3008 8.64 54.4208 8.64H55.2668C55.3868 8.64 55.4828 8.682 55.5548 8.766C55.6388 8.838 55.6808 8.934 55.6808 9.054V9.846C55.9928 9.438 56.3828 9.108 56.8508 8.856C57.3308 8.592 57.9428 8.46 58.6868 8.46C59.4668 8.46 60.1268 8.634 60.6668 8.982C61.2188 9.318 61.6328 9.792 61.9088 10.404C62.1848 11.004 62.3228 11.706 62.3228 12.51V17.586C62.3228 17.706 62.2868 17.808 62.2148 17.892C62.1428 17.964 62.0468 18 61.9268 18H61.0268C60.9068 18 60.8048 17.964 60.7208 17.892C60.6488 17.808 60.6128 17.706 60.6128 17.586V12.6C60.6128 11.76 60.4088 11.106 60.0008 10.638C59.5928 10.158 58.9928 9.918 58.2008 9.918C57.4568 9.918 56.8568 10.158 56.4008 10.638C55.9568 11.106 55.7348 11.76 55.7348 12.6V17.586C55.7348 17.706 55.6928 17.808 55.6088 17.892C55.5368 17.964 55.4408 18 55.3208 18H54.4208ZM67.9828 18.18C67.3228 18.18 66.7528 18.066 66.2728 17.838C65.7928 17.598 65.3968 17.28 65.0848 16.884C64.7848 16.476 64.5568 16.014 64.4008 15.498C64.2568 14.982 64.1728 14.436 64.1488 13.86C64.1368 13.668 64.1308 13.488 64.1308 13.32C64.1308 13.152 64.1368 12.972 64.1488 12.78C64.1728 12.216 64.2568 11.676 64.4008 11.16C64.5568 10.644 64.7848 10.182 65.0848 9.774C65.3968 9.366 65.7928 9.048 66.2728 8.82C66.7528 8.58 67.3228 8.46 67.9828 8.46C68.6908 8.46 69.2788 8.586 69.7468 8.838C70.2148 9.09 70.5988 9.402 70.8988 9.774V5.634C70.8988 5.514 70.9348 5.418 71.0068 5.346C71.0908 5.262 71.1928 5.22 71.3128 5.22H72.1768C72.2968 5.22 72.3928 5.262 72.4648 5.346C72.5488 5.418 72.5908 5.514 72.5908 5.634V17.586C72.5908 17.706 72.5488 17.808 72.4648 17.892C72.3928 17.964 72.2968 18 72.1768 18H71.3668C71.2348 18 71.1328 17.964 71.0608 17.892C70.9888 17.808 70.9528 17.706 70.9528 17.586V16.83C70.6528 17.214 70.2628 17.538 69.7828 17.802C69.3028 18.054 68.7028 18.18 67.9828 18.18ZM68.3608 16.722C68.9608 16.722 69.4408 16.584 69.8008 16.308C70.1608 16.032 70.4308 15.684 70.6108 15.264C70.7908 14.832 70.8868 14.394 70.8988 13.95C70.9108 13.758 70.9168 13.53 70.9168 13.266C70.9168 12.99 70.9108 12.756 70.8988 12.564C70.8868 12.144 70.7848 11.73 70.5928 11.322C70.4128 10.914 70.1368 10.578 69.7648 10.314C69.4048 10.05 68.9368 9.918 68.3608 9.918C67.7488 9.918 67.2628 10.056 66.9028 10.332C66.5428 10.596 66.2848 10.95 66.1288 11.394C65.9728 11.826 65.8828 12.294 65.8588 12.798C65.8468 13.146 65.8468 13.494 65.8588 13.842C65.8828 14.346 65.9728 14.82 66.1288 15.264C66.2848 15.696 66.5428 16.05 66.9028 16.326C67.2628 16.59 67.7488 16.722 68.3608 16.722ZM78.6339 18.18C77.3979 18.18 76.4139 17.802 75.6819 17.046C74.9499 16.278 74.5479 15.234 74.4759 13.914C74.4639 13.758 74.4579 13.56 74.4579 13.32C74.4579 13.068 74.4639 12.864 74.4759 12.708C74.5239 11.856 74.7219 11.112 75.0699 10.476C75.4179 9.828 75.8919 9.33 76.4919 8.982C77.1039 8.634 77.8179 8.46 78.6339 8.46C79.5459 8.46 80.3079 8.652 80.9199 9.036C81.5439 9.42 82.0179 9.966 82.3419 10.674C82.6659 11.382 82.8279 12.21 82.8279 13.158V13.464C82.8279 13.596 82.7859 13.698 82.7019 13.77C82.6299 13.842 82.5339 13.878 82.4139 13.878H76.1859C76.1859 13.89 76.1859 13.914 76.1859 13.95C76.1859 13.986 76.1859 14.016 76.1859 14.04C76.2099 14.532 76.3179 14.994 76.5099 15.426C76.7019 15.846 76.9779 16.188 77.3379 16.452C77.6979 16.716 78.1299 16.848 78.6339 16.848C79.0659 16.848 79.4259 16.782 79.7139 16.65C80.0019 16.518 80.2359 16.374 80.4159 16.218C80.5959 16.05 80.7159 15.924 80.7759 15.84C80.8839 15.684 80.9679 15.594 81.0279 15.57C81.0879 15.534 81.1839 15.516 81.3159 15.516H82.1799C82.2999 15.516 82.3959 15.552 82.4679 15.624C82.5519 15.684 82.5879 15.774 82.5759 15.894C82.5639 16.074 82.4679 16.296 82.2879 16.56C82.1079 16.812 81.8499 17.064 81.5139 17.316C81.1779 17.568 80.7699 17.778 80.2899 17.946C79.8099 18.102 79.2579 18.18 78.6339 18.18ZM76.1859 12.636H81.1179V12.582C81.1179 12.042 81.0159 11.562 80.8119 11.142C80.6199 10.722 80.3379 10.392 79.9659 10.152C79.5939 9.9 79.1499 9.774 78.6339 9.774C78.1179 9.774 77.6739 9.9 77.3019 10.152C76.9419 10.392 76.6659 10.722 76.4739 11.142C76.2819 11.562 76.1859 12.042 76.1859 12.582V12.636ZM85.0341 18C84.9141 18 84.8121 17.964 84.7281 17.892C84.6561 17.808 84.6201 17.706 84.6201 17.586V9.072C84.6201 8.952 84.6561 8.85 84.7281 8.766C84.8121 8.682 84.9141 8.64 85.0341 8.64H85.8621C85.9821 8.64 86.0841 8.682 86.1681 8.766C86.2521 8.85 86.2941 8.952 86.2941 9.072V9.864C86.5341 9.456 86.8641 9.15 87.2841 8.946C87.7041 8.742 88.2081 8.64 88.7961 8.64H89.5161C89.6361 8.64 89.7321 8.682 89.8041 8.766C89.8761 8.838 89.9121 8.934 89.9121 9.054V9.792C89.9121 9.912 89.8761 10.008 89.8041 10.08C89.7321 10.152 89.6361 10.188 89.5161 10.188H88.4361C87.7881 10.188 87.2781 10.38 86.9061 10.764C86.5341 11.136 86.3481 11.646 86.3481 12.294V17.586C86.3481 17.706 86.3061 17.808 86.2221 17.892C86.1381 17.964 86.0361 18 85.9161 18H85.0341ZM91.746 18C91.614 18 91.512 17.964 91.44 17.892C91.368 17.808 91.332 17.706 91.332 17.586V5.832C91.332 5.7 91.368 5.598 91.44 5.526C91.512 5.442 91.614 5.4 91.746 5.4H96.318C97.206 5.4 97.974 5.544 98.622 5.832C99.282 6.12 99.792 6.552 100.152 7.128C100.512 7.692 100.692 8.4 100.692 9.252C100.692 10.104 100.512 10.812 100.152 11.376C99.792 11.94 99.282 12.366 98.622 12.654C97.974 12.942 97.206 13.086 96.318 13.086H93.132V17.586C93.132 17.706 93.09 17.808 93.006 17.892C92.934 17.964 92.832 18 92.7 18H91.746ZM93.114 11.574H96.228C97.116 11.574 97.782 11.376 98.226 10.98C98.67 10.584 98.892 10.008 98.892 9.252C98.892 8.508 98.676 7.932 98.244 7.524C97.812 7.116 97.14 6.912 96.228 6.912H93.114V11.574ZM104.721 18.18C104.121 18.18 103.575 18.06 103.083 17.82C102.591 17.58 102.195 17.256 101.895 16.848C101.595 16.44 101.445 15.978 101.445 15.462C101.445 14.634 101.781 13.974 102.453 13.482C103.125 12.99 104.001 12.666 105.081 12.51L107.763 12.132V11.61C107.763 11.034 107.595 10.584 107.259 10.26C106.935 9.936 106.401 9.774 105.657 9.774C105.117 9.774 104.679 9.882 104.343 10.098C104.019 10.314 103.791 10.59 103.659 10.926C103.587 11.106 103.461 11.196 103.281 11.196H102.471C102.339 11.196 102.237 11.16 102.165 11.088C102.105 11.004 102.075 10.908 102.075 10.8C102.075 10.62 102.141 10.398 102.273 10.134C102.417 9.87 102.633 9.612 102.921 9.36C103.209 9.108 103.575 8.898 104.019 8.73C104.475 8.55 105.027 8.46 105.675 8.46C106.395 8.46 107.001 8.556 107.493 8.748C107.985 8.928 108.369 9.174 108.645 9.486C108.933 9.798 109.137 10.152 109.257 10.548C109.389 10.944 109.455 11.346 109.455 11.754V17.586C109.455 17.706 109.413 17.808 109.329 17.892C109.257 17.964 109.161 18 109.041 18H108.213C108.081 18 107.979 17.964 107.907 17.892C107.835 17.808 107.799 17.706 107.799 17.586V16.812C107.643 17.028 107.433 17.244 107.169 17.46C106.905 17.664 106.575 17.838 106.179 17.982C105.783 18.114 105.297 18.18 104.721 18.18ZM105.099 16.83C105.591 16.83 106.041 16.728 106.449 16.524C106.857 16.308 107.175 15.978 107.403 15.534C107.643 15.09 107.763 14.532 107.763 13.86V13.356L105.675 13.662C104.823 13.782 104.181 13.986 103.749 14.274C103.317 14.55 103.101 14.904 103.101 15.336C103.101 15.672 103.197 15.954 103.389 16.182C103.593 16.398 103.845 16.56 104.145 16.668C104.457 16.776 104.775 16.83 105.099 16.83ZM112.115 18C111.995 18 111.893 17.964 111.809 17.892C111.737 17.808 111.701 17.706 111.701 17.586V5.634C111.701 5.514 111.737 5.418 111.809 5.346C111.893 5.262 111.995 5.22 112.115 5.22H112.961C113.093 5.22 113.195 5.262 113.267 5.346C113.339 5.418 113.375 5.514 113.375 5.634V17.586C113.375 17.706 113.339 17.808 113.267 17.892C113.195 17.964 113.093 18 112.961 18H112.115Z" fill="#060B1A"/>
<g clip-path="url(#clip1_152_1218)">
<path d="M119.702 20.4975L121.515 20.267C122.093 20.1935 122.736 20.1957 122.921 19.2983C122.995 18.9369 122.964 18.5193 122.967 18.1488C122.971 17.7261 122.974 17.3035 122.977 16.8809C122.983 16.0853 122.986 15.2897 122.988 14.4942C122.995 11.2685 123.033 8.0217 122.924 4.7986C122.91 4.37223 122.831 3.93736 122.543 3.69093C122.268 3.45604 121.949 3.49933 121.638 3.51024C120.94 3.5347 120.242 3.55915 119.545 3.58361C118.82 3.60903 118.817 5.11055 119.545 5.08503C120.059 5.06701 120.573 5.04899 121.087 5.03097C121.326 5.0226 121.564 5.01424 121.803 5.00587C121.86 5.00387 121.96 5.03457 122.007 4.99987C122.165 4.88143 121.709 4.78215 121.792 4.69751C121.754 4.73677 121.801 5.17675 121.802 5.24602C121.822 6.61316 121.837 7.98043 121.846 9.34777C121.866 12.1322 121.865 14.9169 121.842 17.7013C121.841 17.8753 121.839 18.0493 121.838 18.2233C121.836 18.3993 121.802 18.648 121.832 18.82L121.831 18.8761C121.817 19.0374 121.876 18.9783 122.007 18.6988C122.023 18.7063 121.894 18.7175 121.899 18.7167C121.753 18.7386 121.606 18.754 121.46 18.7726L119.702 18.996C119.399 19.0346 119.138 19.3135 119.138 19.7467C119.138 20.1228 119.397 20.5363 119.702 20.4975Z" fill="#060B1A"/>
</g>
<defs>
<clipPath id="clip0_152_1218">
<rect width="4" height="17" fill="white" transform="translate(0 3.5)"/>
</clipPath>
<clipPath id="clip1_152_1218">
<rect width="4" height="17" fill="white" transform="matrix(-1 0 0 -1 123 20.5)"/>
</clipPath>
</defs>
</svg>
