<svg width="66" height="66" viewBox="0 0 66 66" fill="none" xmlns="http://www.w3.org/2000/svg">
<path d="M48.2461 44.4584C48.2461 44.4584 48.4253 44.304 48.7102 44.0421C52.9752 40.076 55.3871 34.6722 54.8654 28.9484C53.8926 18.2777 43.0698 10.5332 30.6962 11.6612C18.3225 12.7892 9.07843 22.363 10.0512 33.0337C11.0244 43.7094 21.8199 51.1551 34.1936 50.0271C35.2492 49.9309 36.9757 49.7032 39.373 49.3441C42.7011 51.0992 47.4398 52.3567 51.4531 51.9909C52.6955 51.8776 53.1875 50.8035 52.2959 49.8355C50.9507 48.4619 49.0659 46.2363 48.2508 44.4555L48.2461 44.4584Z" stroke="#DCEBFE" stroke-width="2" stroke-linecap="round" stroke-linejoin="round"/>
<path d="M21.7383 37.3552C28.5299 43.012 38.4886 42.1042 44.1454 35.3126" stroke="#DCEBFE" stroke-width="2" stroke-linecap="round" stroke-linejoin="round"/>
</svg>
