<svg width="64" height="64" viewBox="0 0 64 64" fill="none" xmlns="http://www.w3.org/2000/svg">
<path d="M10.6924 15.913C10.6548 15.251 10.8818 14.6012 11.3233 14.1066C11.7648 13.6119 12.3848 13.3129 13.0468 13.2754L47.9906 11.2927C48.6525 11.2552 49.3023 11.4821 49.797 11.9236C50.2916 12.3652 50.5906 12.9851 50.6282 13.6471L50.9114 18.6391C50.949 19.301 50.722 19.9508 50.2805 20.4455C49.839 20.9401 49.219 21.2391 48.557 21.2767L13.6132 23.2593C12.9513 23.2969 12.3015 23.0699 11.8068 22.6284C11.3122 22.1869 11.0132 21.5669 10.9756 20.9049L10.6924 15.913Z" stroke="#DCEBFE" stroke-width="2" stroke-linecap="round" stroke-linejoin="round"/>
<path d="M11.8252 35.8817C11.7877 35.2198 12.0146 34.57 12.4561 34.0753C12.8977 33.5807 13.5176 33.2817 14.1796 33.2441L24.1635 32.6777C24.8255 32.6401 25.4753 32.867 25.9699 33.3086C26.4646 33.7501 26.7636 34.37 26.8011 35.032L27.6508 50.0079C27.6884 50.6699 27.4614 51.3197 27.0199 51.8143C26.5784 52.309 25.9584 52.608 25.2965 52.6455L15.3125 53.212C14.6505 53.2496 14.0008 53.0226 13.5061 52.5811C13.0115 52.1396 12.7125 51.5196 12.6749 50.8576L11.8252 35.8817Z" stroke="#DCEBFE" stroke-width="2" stroke-linecap="round" stroke-linejoin="round"/>
<path d="M36.6445 31.9688L51.6204 31.119" stroke="#DCEBFE" stroke-width="2" stroke-linecap="round" stroke-linejoin="round"/>
<path d="M37.2109 41.9531L52.1869 41.1034" stroke="#DCEBFE" stroke-width="2" stroke-linecap="round" stroke-linejoin="round"/>
<path d="M37.7773 51.9375L52.7533 51.0878" stroke="#DCEBFE" stroke-width="2" stroke-linecap="round" stroke-linejoin="round"/>
</svg>
