<svg width="67" height="68" viewBox="0 0 67 68" fill="none" xmlns="http://www.w3.org/2000/svg">
<path d="M12.0476 24.1584C11.8868 22.8421 12.2555 21.5159 13.0726 20.4714C13.8897 19.427 15.0882 18.7499 16.4045 18.5891L46.1832 14.9519C47.4995 14.7911 48.8258 15.1598 49.8702 15.9769C50.9147 16.794 51.5918 17.9925 51.7525 19.3088L55.3898 49.0875C55.5505 50.4038 55.1818 51.7301 54.3647 52.7745C53.5477 53.819 52.3491 54.496 51.0328 54.6568L21.2541 58.294C19.9378 58.4548 18.6116 58.0861 17.5671 57.269C16.5227 56.4519 15.8456 55.2534 15.6848 53.9371L12.0476 24.1584Z" stroke="#DCEBFE" stroke-width="2" stroke-linecap="round" stroke-linejoin="round"/>
<path d="M40.6133 10.5947L41.8257 20.521" stroke="#DCEBFE" stroke-width="2" stroke-linecap="round" stroke-linejoin="round"/>
<path d="M20.7617 13.0195L21.9741 22.9458" stroke="#DCEBFE" stroke-width="2" stroke-linecap="round" stroke-linejoin="round"/>
<path d="M13.2617 34.085L52.9666 29.2353" stroke="#DCEBFE" stroke-width="2" stroke-linecap="round" stroke-linejoin="round"/>
<path d="M24.3984 42.7988L29.3616 42.1926L29.9678 47.1557L25.0046 47.7619L24.3984 42.7988Z" stroke="#DCEBFE" stroke-width="2" stroke-linecap="round" stroke-linejoin="round"/>
</svg>
